grf
version=1
nRows=15
nColumns=37
inDegrees=no
endheader
time	ground_force_1_vx	ground_force_1_vy	ground_force_1_vz	ground_force_1_px	ground_force_1_py	ground_force_1_pz	ground_moment_1_mx	ground_moment_1_my	ground_moment_1_mz	ground_force_2_vx	ground_force_2_vy	ground_force_2_vz	ground_force_2_px	ground_force_2_py	ground_force_2_pz	ground_moment_2_mx	ground_moment_2_my	ground_moment_2_mz	ground_force_3_vx	ground_force_3_vy	ground_force_3_vz	ground_force_3_px	ground_force_3_py	ground_force_3_pz	ground_moment_3_mx	ground_moment_3_my	ground_moment_3_mz	ground_force_4_vx	ground_force_4_vy	ground_force_4_vz	ground_force_4_px	ground_force_4_py	ground_force_4_pz	ground_moment_4_mx	ground_moment_4_my	ground_moment_4_mz
      0.00000000	      0.00000000	     -0.00000000	      0.00000000	      0.00000000	      0.00000000	      0.00000000	      0.00000000	      0.00000000	      0.00000000	      3.83605194	     11.64119053	   -173.01208496	   -383.79349404	   -958.99988147	      0.00000000	      0.00000000	      0.00000000	   1400.01489450	     -4.97885581	    -15.53911473	   -472.18347168	   -345.78926317	   -717.17860098	      0.00000000	     -0.00000000	     -0.00000000	  -2881.73449688	      0.00000000	     -0.00000000	      0.00000000	      0.00000000	      0.00000000	      0.00000000	      0.00000000	      0.00000000	      0.00000000
      0.01000000	      0.00000000	     -0.00000000	      0.00000000	      0.00000000	      0.00000000	      0.00000000	      0.00000000	      0.00000000	      0.00000000	      4.10368347	     11.34338570	   -171.88061523	   -382.67984427	   -957.75198396	      0.00000000	      0.00000000	      0.00000000	   1245.89609909	     -4.28078101	    -15.96930294	   -473.66497803	   -344.25987186	   -716.94355177	      0.00000000	      0.00000000	     -0.00000000	  -2926.99892752	      0.00000000	     -0.00000000	      0.00000000	      0.00000000	      0.00000000	      0.00000000	      0.00000000	      0.00000000	      0.00000000
      0.02000000	      0.00000000	     -0.00000000	      0.00000000	      0.00000000	      0.00000000	      0.00000000	      0.00000000	      0.00000000	      0.00000000	      4.10978031	     11.42696476	   -171.36466980	   -383.91168985	   -958.74098876	      0.00000000	      0.00000000	     -0.00000000	   1388.28778039	     -4.52425072	    -15.73858337	   -472.77410889	   -344.69421410	   -717.31446599	      0.00000000	      0.00000000	     -0.00000000	  -2988.02131113	      0.00000000	     -0.00000000	      0.00000000	      0.00000000	      0.00000000	      0.00000000	      0.00000000	      0.00000000	      0.00000000
      0.03000000	      0.00000000	     -0.00000000	      0.00000000	      0.00000000	      0.00000000	      0.00000000	      0.00000000	      0.00000000	      0.00000000	      4.25092125	     10.48433685	   -172.70498657	   -380.96120209	   -962.74484366	      0.00000000	      0.00000000	      0.00000000	   1211.90259537	     -4.62484000	    -15.82140807	   -471.07568359	   -344.00366027	   -717.82768218	      0.00000000	      0.00000000	     -0.00000000	  -2848.53431764	      0.00000000	     -0.00000000	      0.00000000	      0.00000000	      0.00000000	      0.00000000	      0.00000000	      0.00000000	      0.00000000
      0.04000000	      0.00000000	     -0.00000000	      0.00000000	      0.00000000	      0.00000000	      0.00000000	      0.00000000	      0.00000000	      0.00000000	      4.69623280	     10.84219074	   -172.15028381	   -381.39186021	   -957.39460041	      0.00000000	      0.00000000	      0.00000000	   1403.90046121	     -3.84499737	    -15.46235449	   -471.95715332	   -343.73175642	   -716.73610907	      0.00000000	      0.00000000	     -0.00000000	  -3017.43588294	      0.00000000	     -0.00000000	      0.00000000	      0.00000000	      0.00000000	      0.00000000	      0.00000000	      0.00000000	      0.00000000
      0.05000000	      0.00000000	     -0.00000000	      0.00000000	      0.00000000	      0.00000000	      0.00000000	      0.00000000	      0.00000000	      0.00000000	      4.29515457	     11.71957874	   -173.66119385	   -381.36639083	   -962.09524491	      0.00000000	      0.00000000	     -0.00000000	   1316.55007006	     -4.46044417	    -15.45629482	   -470.98104858	   -343.75489468	   -715.95342406	      0.00000000	      0.00000000	     -0.00000000	  -2849.15316129	      0.00000000	     -0.00000000	      0.00000000	      0.00000000	      0.00000000	      0.00000000	      0.00000000	      0.00000000	      0.00000000
      0.06000000	      0.00000000	     -0.00000000	      0.00000000	      0.00000000	      0.00000000	      0.00000000	      0.00000000	      0.00000000	      0.00000000	      3.95187449	     11.33950233	   -173.43768311	   -381.29743106	   -960.45180872	      0.00000000	      0.00000000	      0.00000000	   1193.39631021	     -4.39765472	    -15.24802475	   -469.68395996	   -343.44444257	   -716.88316396	      0.00000000	     -0.00000000	     -0.00000000	  -3102.04877464	      0.00000000	     -0.00000000	      0.00000000	      0.00000000	      0.00000000	      0.00000000	      0.00000000	      0.00000000	      0.00000000
      0.07000000	      0.00000000	     -0.00000000	      0.00000000	      0.00000000	      0.00000000	      0.00000000	      0.00000000	      0.00000000	      0.00000000	      4.09688330	     11.67009830	   -172.75883484	   -379.15863480	   -956.46423501	      0.00000000	      0.00000000	      0.00000000	   1462.20535186	     -5.48707026	    -14.95871901	   -470.60522461	   -342.50604326	   -716.72812157	      0.00000000	     -0.00000000	     -0.00000000	  -2764.98411544	      0.00000000	     -0.00000000	      0.00000000	      0.00000000	      0.00000000	      0.00000000	      0.00000000	      0.00000000	      0.00000000
      0.08000000	      0.00000000	     -0.00000000	      0.00000000	      0.00000000	      0.00000000	      0.00000000	      0.00000000	      0.00000000	      0.00000000	      4.15124846	     11.44336510	   -176.42509460	   -377.88487636	   -962.79222319	      0.00000000	      0.00000000	      0.00000000	   1458.36242446	     -5.59541960	    -15.34153151	   -470.60409546	   -341.82269025	   -716.79410313	      0.00000000	      0.00000000	     -0.00000000	  -2816.45346319	      0.00000000	     -0.00000000	      0.00000000	      0.00000000	      0.00000000	      0.00000000	      0.00000000	      0.00000000	      0.00000000
      0.09000000	      0.00000000	     -0.00000000	      0.00000000	      0.00000000	      0.00000000	      0.00000000	      0.00000000	      0.00000000	      0.00000000	      3.73975205	     11.21626472	   -174.14576721	   -377.94677300	   -954.04092776	      0.00000000	      0.00000000	      0.00000000	   1543.55545634	     -5.65034219	    -15.46305250	   -468.72174072	   -341.37780207	   -717.99608806	      0.00000000	      0.00000000	     -0.00000000	  -2782.18032633	      0.00000000	     -0.00000000	      0.00000000	      0.00000000	      0.00000000	      0.00000000	      0.00000000	      0.00000000	      0.00000000
      0.10000000	      0.00000000	     -0.00000000	      0.00000000	      0.00000000	      0.00000000	      0.00000000	      0.00000000	      0.00000000	      0.00000000	      3.79993105	     12.03512287	   -175.02426147	   -377.03615030	   -953.47961996	      0.00000000	      0.00000000	      0.00000000	   1645.14452527	     -5.45288583	    -15.55150771	   -469.01959229	   -341.04150745	   -716.51643322	      0.00000000	      0.00000000	     -0.00000000	  -2994.42773875	      0.00000000	     -0.00000000	      0.00000000	      0.00000000	      0.00000000	      0.00000000	      0.00000000	      0.00000000	      0.00000000
      0.11000000	      0.00000000	     -0.00000000	      0.00000000	      0.00000000	      0.00000000	      0.00000000	      0.00000000	      0.00000000	      0.00000000	      3.64290118	     11.69815731	   -178.00268555	   -376.64237093	   -960.27485568	      0.00000000	      0.00000000	      0.00000000	   1414.80001889	     -6.27728342	    -16.21603938	   -468.91064453	   -340.77555835	   -716.32004479	      0.00000000	     -0.00000000	     -0.00000000	  -2797.39355217	      0.00000000	     -0.00000000	      0.00000000	      0.00000000	      0.00000000	      0.00000000	      0.00000000	      0.00000000	      0.00000000
      0.12000000	      0.00000000	     -0.00000000	      0.00000000	      0.00000000	      0.00000000	      0.00000000	      0.00000000	      0.00000000	      0.00000000	      3.70180488	     11.83934498	   -179.09193420	   -375.87759600	   -959.40071470	      0.00000000	      0.00000000	      0.00000000	   1586.52584796	     -6.00352787	    -16.06737683	   -467.89151001	   -340.57323176	   -715.92766354	      0.00000000	      0.00000000	     -0.00000000	  -2776.57338434	      0.00000000	     -0.00000000	      0.00000000	      0.00000000	      0.00000000	      0.00000000	      0.00000000	      0.00000000	      0.00000000
      0.13000000	      0.00000000	     -0.00000000	      0.00000000	      0.00000000	      0.00000000	      0.00000000	      0.00000000	      0.00000000	      0.00000000	      3.04846644	     11.97907066	   -180.59616089	   -376.10254868	   -960.96069232	      0.00000000	      0.00000000	      0.00000000	   1237.39288699	     -5.85491251	    -16.14823507	   -466.08850098	   -340.36929379	   -716.22056255	      0.00000000	      0.00000000	     -0.00000000	  -2836.67203831	      0.00000000	     -0.00000000	      0.00000000	      0.00000000	      0.00000000	      0.00000000	      0.00000000	      0.00000000	      0.00000000
      0.14000000	      0.00000000	     -0.00000000	      0.00000000	      0.00000000	      0.00000000	      0.00000000	      0.00000000	      0.00000000	      0.00000000	      3.32413936	     12.17975903	   -179.56947327	   -376.66584123	   -954.35376948	      0.00000000	      0.00000000	      0.00000000	   1520.08997438	     -5.82500336	    -15.75848268	   -464.22448730	   -339.90212279	   -715.29724114	      0.00000000	      0.00000000	     -0.00000000	  -2908.24476572	      0.00000000	     -0.00000000	      0.00000000	      0.00000000	      0.00000000	      0.00000000	      0.00000000	      0.00000000	      0.00000000
